<svg width="153" height="45" viewBox="0 0 153 45" fill="none" xmlns="http://www.w3.org/2000/svg">
<path d="M22.3297 11.8773C22.3297 13.5134 21.9353 15.0472 21.1465 16.4787C20.3869 17.9103 19.1745 19.0643 17.5092 19.9407C15.8731 20.8172 13.7988 21.2554 11.2863 21.2554H6.15901V33H0.0237897V2.41152H11.2863C13.6528 2.41152 15.6686 2.82054 17.3339 3.63857C18.9992 4.45659 20.2408 5.58139 21.0588 7.01294C21.9061 8.44449 22.3297 10.0659 22.3297 11.8773ZM11.0234 16.3034C12.7179 16.3034 13.9741 15.9236 14.7922 15.164C15.6102 14.3752 16.0192 13.2796 16.0192 11.8773C16.0192 8.89733 14.3539 7.40734 11.0234 7.40734H6.15901V16.3034H11.0234ZM32.8209 0.570953V33H26.6857V0.570953H32.8209ZM37.3049 20.7734C37.3049 18.3193 37.7869 16.1427 38.751 14.2437C39.7444 12.3447 41.0736 10.884 42.7389 9.86144C44.4334 8.8389 46.3178 8.32763 48.3921 8.32763C50.2034 8.32763 51.7811 8.69282 53.125 9.4232C54.4981 10.1536 55.5937 11.0739 56.4117 12.1841V8.72204H62.5908V33H56.4117V29.4503C55.6229 30.5897 54.5273 31.5392 53.125 32.2988C51.7519 33.0292 50.1596 33.3944 48.3483 33.3944C46.3032 33.3944 44.4334 32.8685 42.7389 31.8168C41.0736 30.765 39.7444 29.2896 38.751 27.3907C37.7869 25.4624 37.3049 23.2567 37.3049 20.7734ZM56.4117 20.861C56.4117 19.371 56.1196 18.1002 55.5353 17.0484C54.9509 15.9674 54.1621 15.1494 53.1688 14.5943C52.1755 14.01 51.1091 13.7179 49.9697 13.7179C48.8303 13.7179 47.7786 13.9954 46.8145 14.5505C45.8504 15.1056 45.0615 15.9236 44.448 17.0046C43.8637 18.0563 43.5716 19.3126 43.5716 20.7734C43.5716 22.2341 43.8637 23.5196 44.448 24.6298C45.0615 25.7108 45.8504 26.5434 46.8145 27.1277C47.8078 27.712 48.8595 28.0042 49.9697 28.0042C51.1091 28.0042 52.1755 27.7266 53.1688 27.1715C54.1621 26.5872 54.9509 25.7692 55.5353 24.7174C56.1196 23.6365 56.4117 22.351 56.4117 20.861ZM91.8091 8.72204L76.7778 44.4816H70.2482L75.5069 32.3865L65.7782 8.72204H72.6584L78.9251 25.6816L85.2795 8.72204H91.8091ZM109.315 33.3068C106.452 33.3068 103.823 32.6348 101.427 31.2909C99.0312 29.947 97.1322 28.0918 95.7299 25.7254C94.3275 23.3297 93.6264 20.6273 93.6264 17.6181C93.6264 14.6381 94.3275 11.9649 95.7299 9.5985C97.1322 7.20284 99.0312 5.33305 101.427 3.98915C103.823 2.64524 106.452 1.97329 109.315 1.97329C112.207 1.97329 114.837 2.64524 117.203 3.98915C119.599 5.33305 121.483 7.20284 122.856 9.5985C124.259 11.9649 124.96 14.6381 124.96 17.6181C124.96 20.6273 124.259 23.3297 122.856 25.7254C121.483 28.0918 119.599 29.947 117.203 31.2909C114.808 32.6348 112.178 33.3068 109.315 33.3068ZM109.315 27.8289C111.156 27.8289 112.777 27.4199 114.179 26.6018C115.582 25.7546 116.677 24.5568 117.466 23.0083C118.255 21.4599 118.649 19.6632 118.649 17.6181C118.649 15.573 118.255 13.7909 117.466 12.2717C116.677 10.7233 115.582 9.54007 114.179 8.72204C112.777 7.90401 111.156 7.49499 109.315 7.49499C107.474 7.49499 105.838 7.90401 104.407 8.72204C103.005 9.54007 101.909 10.7233 101.12 12.2717C100.331 13.7909 99.9369 15.573 99.9369 17.6181C99.9369 19.6632 100.331 21.4599 101.12 23.0083C101.909 24.5568 103.005 25.7546 104.407 26.6018C105.838 27.4199 107.474 27.8289 109.315 27.8289ZM142.978 8.37145C145.87 8.37145 148.208 9.29174 149.99 11.1323C151.772 12.9437 152.663 15.4854 152.663 18.7575V33H146.528V19.5901C146.528 17.6619 146.046 16.1866 145.081 15.164C144.117 14.1123 142.803 13.5864 141.137 13.5864C139.443 13.5864 138.099 14.1123 137.106 15.164C136.142 16.1866 135.66 17.6619 135.66 19.5901V33H129.524V8.72204H135.66V11.7458C136.478 10.6941 137.515 9.87604 138.771 9.29174C140.056 8.67821 141.459 8.37145 142.978 8.37145Z" fill="url(#paint0_radial_12_72)"/>
<defs>
<radialGradient id="paint0_radial_12_72" cx="0" cy="0" r="1" gradientUnits="userSpaceOnUse" gradientTransform="translate(136.125 18) rotate(165.779) scale(102.517 229.344)">
<stop stop-color="#FF2C78"/>
<stop offset="1" stop-color="#DCA4FF"/>
</radialGradient>
</defs>
</svg>
